G75*
G70*
%OFA0B0*%
%FSLAX24Y24*%
%IPPOS*%
%LPD*%
%AMOC8*
5,1,8,0,0,1.08239X$1,22.5*
%
%ADD10C,0.0000*%
%ADD11C,0.1512*%
%ADD12C,0.0100*%
%ADD13C,0.0780*%
%ADD14C,0.0665*%
%ADD15R,0.0780X0.0780*%
%ADD16C,0.1559*%
%ADD17R,0.0360X0.0560*%
%ADD18R,0.0803X0.0567*%
%ADD19C,0.0792*%
%ADD20R,0.0852X0.0312*%
%ADD21R,0.0312X0.0852*%
%ADD22R,0.0850X0.0378*%
%ADD23R,0.1346X0.0992*%
%ADD24R,0.0378X0.0850*%
%ADD25R,0.0992X0.1346*%
%ADD26R,0.0665X0.0665*%
%ADD27O,0.1320X0.0720*%
%ADD28C,0.0523*%
D10*
X005833Y002837D02*
X005836Y002894D01*
X005843Y002951D01*
X005856Y003007D01*
X005874Y003061D01*
X005897Y003114D01*
X005925Y003164D01*
X005957Y003212D01*
X005993Y003256D01*
X006033Y003297D01*
X006077Y003335D01*
X006123Y003368D01*
X006173Y003396D01*
X006225Y003420D01*
X006279Y003440D01*
X006335Y003454D01*
X006391Y003463D01*
X006449Y003467D01*
X006506Y003466D01*
X006563Y003459D01*
X006619Y003447D01*
X006674Y003431D01*
X006727Y003409D01*
X006778Y003383D01*
X006826Y003352D01*
X006872Y003317D01*
X006914Y003277D01*
X006952Y003235D01*
X006986Y003188D01*
X007016Y003139D01*
X007041Y003088D01*
X007061Y003034D01*
X007077Y002979D01*
X007087Y002923D01*
X007092Y002866D01*
X007092Y002808D01*
X007087Y002751D01*
X007077Y002695D01*
X007061Y002640D01*
X007041Y002586D01*
X007016Y002535D01*
X006986Y002486D01*
X006952Y002439D01*
X006914Y002397D01*
X006872Y002357D01*
X006826Y002322D01*
X006778Y002291D01*
X006727Y002265D01*
X006674Y002243D01*
X006619Y002227D01*
X006563Y002215D01*
X006506Y002208D01*
X006449Y002207D01*
X006391Y002211D01*
X006335Y002220D01*
X006279Y002234D01*
X006225Y002254D01*
X006173Y002278D01*
X006123Y002306D01*
X006077Y002339D01*
X006033Y002377D01*
X005993Y002418D01*
X005957Y002462D01*
X005925Y002510D01*
X005897Y002560D01*
X005874Y002613D01*
X005856Y002667D01*
X005843Y002723D01*
X005836Y002780D01*
X005833Y002837D01*
X006299Y012219D02*
X006302Y012278D01*
X006310Y012337D01*
X006323Y012394D01*
X006342Y012451D01*
X006365Y012505D01*
X006394Y012557D01*
X006427Y012606D01*
X006464Y012652D01*
X006505Y012694D01*
X006550Y012732D01*
X006599Y012767D01*
X006650Y012796D01*
X006704Y012821D01*
X006759Y012841D01*
X006817Y012855D01*
X006875Y012865D01*
X006934Y012869D01*
X006993Y012867D01*
X007052Y012861D01*
X007110Y012849D01*
X007167Y012831D01*
X007221Y012809D01*
X007274Y012782D01*
X007324Y012750D01*
X007371Y012714D01*
X007414Y012673D01*
X007453Y012629D01*
X007488Y012582D01*
X007519Y012531D01*
X007545Y012478D01*
X007566Y012423D01*
X007582Y012366D01*
X007593Y012308D01*
X007598Y012249D01*
X007598Y012189D01*
X007593Y012130D01*
X007582Y012072D01*
X007566Y012015D01*
X007545Y011960D01*
X007519Y011907D01*
X007488Y011856D01*
X007453Y011809D01*
X007414Y011765D01*
X007371Y011724D01*
X007324Y011688D01*
X007274Y011656D01*
X007221Y011629D01*
X007167Y011607D01*
X007110Y011589D01*
X007052Y011577D01*
X006993Y011571D01*
X006934Y011569D01*
X006875Y011573D01*
X006817Y011583D01*
X006759Y011597D01*
X006704Y011617D01*
X006650Y011642D01*
X006599Y011671D01*
X006550Y011706D01*
X006505Y011744D01*
X006464Y011786D01*
X006427Y011832D01*
X006394Y011881D01*
X006365Y011933D01*
X006342Y011987D01*
X006323Y012044D01*
X006310Y012101D01*
X006302Y012160D01*
X006299Y012219D01*
X005853Y015963D02*
X005856Y016020D01*
X005863Y016077D01*
X005876Y016133D01*
X005894Y016187D01*
X005917Y016240D01*
X005945Y016290D01*
X005977Y016338D01*
X006013Y016382D01*
X006053Y016423D01*
X006097Y016461D01*
X006143Y016494D01*
X006193Y016522D01*
X006245Y016546D01*
X006299Y016566D01*
X006355Y016580D01*
X006411Y016589D01*
X006469Y016593D01*
X006526Y016592D01*
X006583Y016585D01*
X006639Y016573D01*
X006694Y016557D01*
X006747Y016535D01*
X006798Y016509D01*
X006846Y016478D01*
X006892Y016443D01*
X006934Y016403D01*
X006972Y016361D01*
X007006Y016314D01*
X007036Y016265D01*
X007061Y016214D01*
X007081Y016160D01*
X007097Y016105D01*
X007107Y016049D01*
X007112Y015992D01*
X007112Y015934D01*
X007107Y015877D01*
X007097Y015821D01*
X007081Y015766D01*
X007061Y015712D01*
X007036Y015661D01*
X007006Y015612D01*
X006972Y015565D01*
X006934Y015523D01*
X006892Y015483D01*
X006846Y015448D01*
X006798Y015417D01*
X006747Y015391D01*
X006694Y015369D01*
X006639Y015353D01*
X006583Y015341D01*
X006526Y015334D01*
X006469Y015333D01*
X006411Y015337D01*
X006355Y015346D01*
X006299Y015360D01*
X006245Y015380D01*
X006193Y015404D01*
X006143Y015432D01*
X006097Y015465D01*
X006053Y015503D01*
X006013Y015544D01*
X005977Y015588D01*
X005945Y015636D01*
X005917Y015686D01*
X005894Y015739D01*
X005876Y015793D01*
X005863Y015849D01*
X005856Y015906D01*
X005853Y015963D01*
X022886Y015963D02*
X022889Y016020D01*
X022896Y016077D01*
X022909Y016133D01*
X022927Y016187D01*
X022950Y016240D01*
X022978Y016290D01*
X023010Y016338D01*
X023046Y016382D01*
X023086Y016423D01*
X023130Y016461D01*
X023176Y016494D01*
X023226Y016522D01*
X023278Y016546D01*
X023332Y016566D01*
X023388Y016580D01*
X023444Y016589D01*
X023502Y016593D01*
X023559Y016592D01*
X023616Y016585D01*
X023672Y016573D01*
X023727Y016557D01*
X023780Y016535D01*
X023831Y016509D01*
X023879Y016478D01*
X023925Y016443D01*
X023967Y016403D01*
X024005Y016361D01*
X024039Y016314D01*
X024069Y016265D01*
X024094Y016214D01*
X024114Y016160D01*
X024130Y016105D01*
X024140Y016049D01*
X024145Y015992D01*
X024145Y015934D01*
X024140Y015877D01*
X024130Y015821D01*
X024114Y015766D01*
X024094Y015712D01*
X024069Y015661D01*
X024039Y015612D01*
X024005Y015565D01*
X023967Y015523D01*
X023925Y015483D01*
X023879Y015448D01*
X023831Y015417D01*
X023780Y015391D01*
X023727Y015369D01*
X023672Y015353D01*
X023616Y015341D01*
X023559Y015334D01*
X023502Y015333D01*
X023444Y015337D01*
X023388Y015346D01*
X023332Y015360D01*
X023278Y015380D01*
X023226Y015404D01*
X023176Y015432D01*
X023130Y015465D01*
X023086Y015503D01*
X023046Y015544D01*
X023010Y015588D01*
X022978Y015636D01*
X022950Y015686D01*
X022927Y015739D01*
X022909Y015793D01*
X022896Y015849D01*
X022889Y015906D01*
X022886Y015963D01*
X022882Y002827D02*
X022885Y002884D01*
X022892Y002941D01*
X022905Y002997D01*
X022923Y003051D01*
X022946Y003104D01*
X022974Y003154D01*
X023006Y003202D01*
X023042Y003246D01*
X023082Y003287D01*
X023126Y003325D01*
X023172Y003358D01*
X023222Y003386D01*
X023274Y003410D01*
X023328Y003430D01*
X023384Y003444D01*
X023440Y003453D01*
X023498Y003457D01*
X023555Y003456D01*
X023612Y003449D01*
X023668Y003437D01*
X023723Y003421D01*
X023776Y003399D01*
X023827Y003373D01*
X023875Y003342D01*
X023921Y003307D01*
X023963Y003267D01*
X024001Y003225D01*
X024035Y003178D01*
X024065Y003129D01*
X024090Y003078D01*
X024110Y003024D01*
X024126Y002969D01*
X024136Y002913D01*
X024141Y002856D01*
X024141Y002798D01*
X024136Y002741D01*
X024126Y002685D01*
X024110Y002630D01*
X024090Y002576D01*
X024065Y002525D01*
X024035Y002476D01*
X024001Y002429D01*
X023963Y002387D01*
X023921Y002347D01*
X023875Y002312D01*
X023827Y002281D01*
X023776Y002255D01*
X023723Y002233D01*
X023668Y002217D01*
X023612Y002205D01*
X023555Y002198D01*
X023498Y002197D01*
X023440Y002201D01*
X023384Y002210D01*
X023328Y002224D01*
X023274Y002244D01*
X023222Y002268D01*
X023172Y002296D01*
X023126Y002329D01*
X023082Y002367D01*
X023042Y002408D01*
X023006Y002452D01*
X022974Y002500D01*
X022946Y002550D01*
X022923Y002603D01*
X022905Y002657D01*
X022892Y002713D01*
X022885Y002770D01*
X022882Y002827D01*
D11*
X023512Y002827D03*
X006463Y002837D03*
X006483Y015963D03*
X023516Y015963D03*
D12*
X025162Y001170D02*
X005150Y001170D01*
X005150Y017278D01*
X025162Y017278D01*
X025162Y001170D01*
D13*
X008650Y012810D03*
X017043Y016288D03*
X018043Y016288D03*
X019043Y016288D03*
X020043Y016288D03*
X021043Y016288D03*
D14*
X011263Y016098D03*
X009363Y016098D03*
X009539Y002533D03*
X010326Y002533D03*
X008751Y002533D03*
D15*
X008650Y011629D03*
D16*
X006949Y012219D03*
D17*
X009413Y010703D03*
X009913Y010703D03*
X010413Y010703D03*
X010913Y010703D03*
X011413Y010703D03*
X011913Y010703D03*
X012413Y010703D03*
X012913Y010703D03*
X013413Y010703D03*
X013913Y010703D03*
X014413Y010703D03*
X014913Y010703D03*
X015413Y010703D03*
X015913Y010703D03*
X015913Y014753D03*
X015413Y014753D03*
X014913Y014753D03*
X014413Y014753D03*
X013913Y014753D03*
X013413Y014753D03*
X012913Y014753D03*
X012413Y014753D03*
X011913Y014753D03*
X011413Y014753D03*
X010913Y014753D03*
X010413Y014753D03*
X009913Y014753D03*
X009413Y014753D03*
D18*
X010603Y004403D03*
X011783Y004403D03*
D19*
X012871Y002543D03*
X013871Y002543D03*
X014871Y002543D03*
X014998Y004412D03*
X018998Y004412D03*
D20*
X017068Y010983D03*
X017068Y011483D03*
X017068Y011983D03*
X017068Y012483D03*
X017068Y012983D03*
X017068Y013483D03*
X017068Y013983D03*
X017068Y014483D03*
X017068Y014983D03*
X021028Y014983D03*
X021028Y014483D03*
X021028Y013983D03*
X021028Y013483D03*
X021028Y012983D03*
X021028Y012483D03*
X021028Y011983D03*
X021028Y011483D03*
X021028Y010983D03*
D21*
X018233Y009428D03*
X017733Y009428D03*
X017233Y009428D03*
X016733Y009428D03*
X016233Y009428D03*
X015733Y009428D03*
X015233Y009428D03*
X014733Y009428D03*
X014233Y009428D03*
X014233Y005468D03*
X014733Y005468D03*
X015233Y005468D03*
X015733Y005468D03*
X016233Y005468D03*
X016733Y005468D03*
X017233Y005468D03*
X017733Y005468D03*
X018233Y005468D03*
D22*
X022844Y005656D03*
X022844Y006148D03*
X022844Y006640D03*
X022844Y007132D03*
X022844Y007624D03*
X022844Y010914D03*
X022844Y011406D03*
X022844Y011898D03*
X022844Y012390D03*
X022844Y012882D03*
D23*
X024074Y013867D03*
X024074Y009930D03*
X024074Y008609D03*
X024074Y004671D03*
D24*
X020595Y003487D03*
X020102Y003487D03*
X019610Y003487D03*
X019118Y003487D03*
X018626Y003487D03*
X018134Y003487D03*
X017642Y003487D03*
D25*
X016658Y002257D03*
X021579Y002257D03*
D26*
X011113Y002533D03*
D27*
X006323Y006483D03*
X006323Y007483D03*
X006323Y008483D03*
D28*
X007363Y008088D03*
X008353Y009138D03*
X008623Y010188D03*
X008233Y010608D03*
X010303Y008238D03*
X010303Y007398D03*
X011503Y006498D03*
X011623Y004998D03*
X010993Y004998D03*
X009163Y003138D03*
X008113Y002448D03*
X008203Y005868D03*
X008233Y006468D03*
X007213Y006018D03*
X011923Y008868D03*
X013183Y009498D03*
X013783Y010008D03*
X012583Y010098D03*
X012643Y011748D03*
X013903Y011868D03*
X014503Y012288D03*
X015913Y012288D03*
X016303Y011868D03*
X016243Y011298D03*
X017833Y012318D03*
X018913Y013188D03*
X020053Y013158D03*
X020173Y014358D03*
X020413Y015378D03*
X022663Y014298D03*
X022003Y013428D03*
X023593Y012798D03*
X023593Y012228D03*
X023593Y011658D03*
X022063Y008868D03*
X022033Y008298D03*
X021523Y007638D03*
X022093Y006978D03*
X022093Y006288D03*
X020893Y004938D03*
X020353Y004248D03*
X018343Y004728D03*
X017773Y004698D03*
X017413Y004248D03*
X018853Y002748D03*
X019993Y002748D03*
X014563Y003888D03*
X013753Y005838D03*
X014773Y006738D03*
X015403Y006828D03*
X016063Y006828D03*
X016993Y006828D03*
X016903Y007398D03*
X017833Y006828D03*
X018523Y006828D03*
X019213Y007908D03*
X019663Y008508D03*
X019693Y009378D03*
X018643Y010428D03*
X018223Y011298D03*
X019333Y011718D03*
X019783Y010878D03*
X016303Y013158D03*
X016303Y014118D03*
X015073Y013698D03*
X014563Y014118D03*
X013963Y013578D03*
X013063Y013908D03*
X011623Y013098D03*
X008893Y014868D03*
X013663Y015768D03*
X015253Y015348D03*
X016333Y015858D03*
X017893Y014778D03*
X018163Y015618D03*
X017833Y013698D03*
X016033Y008688D03*
M02*
