G75*
G70*
%OFA0B0*%
%FSLAX24Y24*%
%IPPOS*%
%LPD*%
%AMOC8*
5,1,8,0,0,1.08239X$1,22.5*
%
%ADD10C,0.0000*%
%ADD11C,0.0100*%
%ADD12C,0.0650*%
%ADD13C,0.0554*%
%ADD14R,0.0650X0.0650*%
%ADD15R,0.0300X0.0500*%
%ADD16R,0.0709X0.0472*%
%ADD17C,0.0660*%
%ADD18R,0.0800X0.0260*%
%ADD19R,0.0260X0.0800*%
%ADD20R,0.0787X0.0315*%
%ADD21R,0.1181X0.0827*%
%ADD22R,0.0315X0.0787*%
%ADD23R,0.0827X0.1181*%
%ADD24R,0.0554X0.0554*%
%ADD25O,0.1200X0.0600*%
%ADD26C,0.0120*%
%ADD27C,0.0436*%
%ADD28C,0.0200*%
D10*
X005833Y002837D02*
X005836Y002894D01*
X005843Y002951D01*
X005856Y003007D01*
X005874Y003061D01*
X005897Y003114D01*
X005925Y003164D01*
X005957Y003212D01*
X005993Y003256D01*
X006033Y003297D01*
X006077Y003335D01*
X006123Y003368D01*
X006173Y003396D01*
X006225Y003420D01*
X006279Y003440D01*
X006335Y003454D01*
X006391Y003463D01*
X006449Y003467D01*
X006506Y003466D01*
X006563Y003459D01*
X006619Y003447D01*
X006674Y003431D01*
X006727Y003409D01*
X006778Y003383D01*
X006826Y003352D01*
X006872Y003317D01*
X006914Y003277D01*
X006952Y003235D01*
X006986Y003188D01*
X007016Y003139D01*
X007041Y003088D01*
X007061Y003034D01*
X007077Y002979D01*
X007087Y002923D01*
X007092Y002866D01*
X007092Y002808D01*
X007087Y002751D01*
X007077Y002695D01*
X007061Y002640D01*
X007041Y002586D01*
X007016Y002535D01*
X006986Y002486D01*
X006952Y002439D01*
X006914Y002397D01*
X006872Y002357D01*
X006826Y002322D01*
X006778Y002291D01*
X006727Y002265D01*
X006674Y002243D01*
X006619Y002227D01*
X006563Y002215D01*
X006506Y002208D01*
X006449Y002207D01*
X006391Y002211D01*
X006335Y002220D01*
X006279Y002234D01*
X006225Y002254D01*
X006173Y002278D01*
X006123Y002306D01*
X006077Y002339D01*
X006033Y002377D01*
X005993Y002418D01*
X005957Y002462D01*
X005925Y002510D01*
X005897Y002560D01*
X005874Y002613D01*
X005856Y002667D01*
X005843Y002723D01*
X005836Y002780D01*
X005833Y002837D01*
X006299Y012219D02*
X006302Y012278D01*
X006310Y012337D01*
X006323Y012394D01*
X006342Y012451D01*
X006365Y012505D01*
X006394Y012557D01*
X006427Y012606D01*
X006464Y012652D01*
X006505Y012694D01*
X006550Y012732D01*
X006599Y012767D01*
X006650Y012796D01*
X006704Y012821D01*
X006759Y012841D01*
X006817Y012855D01*
X006875Y012865D01*
X006934Y012869D01*
X006993Y012867D01*
X007052Y012861D01*
X007110Y012849D01*
X007167Y012831D01*
X007221Y012809D01*
X007274Y012782D01*
X007324Y012750D01*
X007371Y012714D01*
X007414Y012673D01*
X007453Y012629D01*
X007488Y012582D01*
X007519Y012531D01*
X007545Y012478D01*
X007566Y012423D01*
X007582Y012366D01*
X007593Y012308D01*
X007598Y012249D01*
X007598Y012189D01*
X007593Y012130D01*
X007582Y012072D01*
X007566Y012015D01*
X007545Y011960D01*
X007519Y011907D01*
X007488Y011856D01*
X007453Y011809D01*
X007414Y011765D01*
X007371Y011724D01*
X007324Y011688D01*
X007274Y011656D01*
X007221Y011629D01*
X007167Y011607D01*
X007110Y011589D01*
X007052Y011577D01*
X006993Y011571D01*
X006934Y011569D01*
X006875Y011573D01*
X006817Y011583D01*
X006759Y011597D01*
X006704Y011617D01*
X006650Y011642D01*
X006599Y011671D01*
X006550Y011706D01*
X006505Y011744D01*
X006464Y011786D01*
X006427Y011832D01*
X006394Y011881D01*
X006365Y011933D01*
X006342Y011987D01*
X006323Y012044D01*
X006310Y012101D01*
X006302Y012160D01*
X006299Y012219D01*
X005853Y015963D02*
X005856Y016020D01*
X005863Y016077D01*
X005876Y016133D01*
X005894Y016187D01*
X005917Y016240D01*
X005945Y016290D01*
X005977Y016338D01*
X006013Y016382D01*
X006053Y016423D01*
X006097Y016461D01*
X006143Y016494D01*
X006193Y016522D01*
X006245Y016546D01*
X006299Y016566D01*
X006355Y016580D01*
X006411Y016589D01*
X006469Y016593D01*
X006526Y016592D01*
X006583Y016585D01*
X006639Y016573D01*
X006694Y016557D01*
X006747Y016535D01*
X006798Y016509D01*
X006846Y016478D01*
X006892Y016443D01*
X006934Y016403D01*
X006972Y016361D01*
X007006Y016314D01*
X007036Y016265D01*
X007061Y016214D01*
X007081Y016160D01*
X007097Y016105D01*
X007107Y016049D01*
X007112Y015992D01*
X007112Y015934D01*
X007107Y015877D01*
X007097Y015821D01*
X007081Y015766D01*
X007061Y015712D01*
X007036Y015661D01*
X007006Y015612D01*
X006972Y015565D01*
X006934Y015523D01*
X006892Y015483D01*
X006846Y015448D01*
X006798Y015417D01*
X006747Y015391D01*
X006694Y015369D01*
X006639Y015353D01*
X006583Y015341D01*
X006526Y015334D01*
X006469Y015333D01*
X006411Y015337D01*
X006355Y015346D01*
X006299Y015360D01*
X006245Y015380D01*
X006193Y015404D01*
X006143Y015432D01*
X006097Y015465D01*
X006053Y015503D01*
X006013Y015544D01*
X005977Y015588D01*
X005945Y015636D01*
X005917Y015686D01*
X005894Y015739D01*
X005876Y015793D01*
X005863Y015849D01*
X005856Y015906D01*
X005853Y015963D01*
X022886Y015963D02*
X022889Y016020D01*
X022896Y016077D01*
X022909Y016133D01*
X022927Y016187D01*
X022950Y016240D01*
X022978Y016290D01*
X023010Y016338D01*
X023046Y016382D01*
X023086Y016423D01*
X023130Y016461D01*
X023176Y016494D01*
X023226Y016522D01*
X023278Y016546D01*
X023332Y016566D01*
X023388Y016580D01*
X023444Y016589D01*
X023502Y016593D01*
X023559Y016592D01*
X023616Y016585D01*
X023672Y016573D01*
X023727Y016557D01*
X023780Y016535D01*
X023831Y016509D01*
X023879Y016478D01*
X023925Y016443D01*
X023967Y016403D01*
X024005Y016361D01*
X024039Y016314D01*
X024069Y016265D01*
X024094Y016214D01*
X024114Y016160D01*
X024130Y016105D01*
X024140Y016049D01*
X024145Y015992D01*
X024145Y015934D01*
X024140Y015877D01*
X024130Y015821D01*
X024114Y015766D01*
X024094Y015712D01*
X024069Y015661D01*
X024039Y015612D01*
X024005Y015565D01*
X023967Y015523D01*
X023925Y015483D01*
X023879Y015448D01*
X023831Y015417D01*
X023780Y015391D01*
X023727Y015369D01*
X023672Y015353D01*
X023616Y015341D01*
X023559Y015334D01*
X023502Y015333D01*
X023444Y015337D01*
X023388Y015346D01*
X023332Y015360D01*
X023278Y015380D01*
X023226Y015404D01*
X023176Y015432D01*
X023130Y015465D01*
X023086Y015503D01*
X023046Y015544D01*
X023010Y015588D01*
X022978Y015636D01*
X022950Y015686D01*
X022927Y015739D01*
X022909Y015793D01*
X022896Y015849D01*
X022889Y015906D01*
X022886Y015963D01*
X022882Y002827D02*
X022885Y002884D01*
X022892Y002941D01*
X022905Y002997D01*
X022923Y003051D01*
X022946Y003104D01*
X022974Y003154D01*
X023006Y003202D01*
X023042Y003246D01*
X023082Y003287D01*
X023126Y003325D01*
X023172Y003358D01*
X023222Y003386D01*
X023274Y003410D01*
X023328Y003430D01*
X023384Y003444D01*
X023440Y003453D01*
X023498Y003457D01*
X023555Y003456D01*
X023612Y003449D01*
X023668Y003437D01*
X023723Y003421D01*
X023776Y003399D01*
X023827Y003373D01*
X023875Y003342D01*
X023921Y003307D01*
X023963Y003267D01*
X024001Y003225D01*
X024035Y003178D01*
X024065Y003129D01*
X024090Y003078D01*
X024110Y003024D01*
X024126Y002969D01*
X024136Y002913D01*
X024141Y002856D01*
X024141Y002798D01*
X024136Y002741D01*
X024126Y002685D01*
X024110Y002630D01*
X024090Y002576D01*
X024065Y002525D01*
X024035Y002476D01*
X024001Y002429D01*
X023963Y002387D01*
X023921Y002347D01*
X023875Y002312D01*
X023827Y002281D01*
X023776Y002255D01*
X023723Y002233D01*
X023668Y002217D01*
X023612Y002205D01*
X023555Y002198D01*
X023498Y002197D01*
X023440Y002201D01*
X023384Y002210D01*
X023328Y002224D01*
X023274Y002244D01*
X023222Y002268D01*
X023172Y002296D01*
X023126Y002329D01*
X023082Y002367D01*
X023042Y002408D01*
X023006Y002452D01*
X022974Y002500D01*
X022946Y002550D01*
X022923Y002603D01*
X022905Y002657D01*
X022892Y002713D01*
X022885Y002770D01*
X022882Y002827D01*
D11*
X025162Y001170D02*
X005150Y001170D01*
X005150Y017278D01*
X025162Y017278D01*
X025162Y001170D01*
D12*
X008650Y012810D03*
X017043Y016288D03*
X018043Y016288D03*
X019043Y016288D03*
X020043Y016288D03*
X021043Y016288D03*
D13*
X011263Y016098D03*
X009363Y016098D03*
X009539Y002533D03*
X010326Y002533D03*
X008751Y002533D03*
D14*
X008650Y011629D03*
D15*
X009413Y010703D03*
X009913Y010703D03*
X010413Y010703D03*
X010913Y010703D03*
X011413Y010703D03*
X011913Y010703D03*
X012413Y010703D03*
X012913Y010703D03*
X013413Y010703D03*
X013913Y010703D03*
X014413Y010703D03*
X014913Y010703D03*
X015413Y010703D03*
X015913Y010703D03*
X015913Y014753D03*
X015413Y014753D03*
X014913Y014753D03*
X014413Y014753D03*
X013913Y014753D03*
X013413Y014753D03*
X012913Y014753D03*
X012413Y014753D03*
X011913Y014753D03*
X011413Y014753D03*
X010913Y014753D03*
X010413Y014753D03*
X009913Y014753D03*
X009413Y014753D03*
D16*
X010603Y004403D03*
X011783Y004403D03*
D17*
X012871Y002543D03*
X013871Y002543D03*
X014871Y002543D03*
X014998Y004412D03*
X018998Y004412D03*
D18*
X017068Y010983D03*
X017068Y011483D03*
X017068Y011983D03*
X017068Y012483D03*
X017068Y012983D03*
X017068Y013483D03*
X017068Y013983D03*
X017068Y014483D03*
X017068Y014983D03*
X021028Y014983D03*
X021028Y014483D03*
X021028Y013983D03*
X021028Y013483D03*
X021028Y012983D03*
X021028Y012483D03*
X021028Y011983D03*
X021028Y011483D03*
X021028Y010983D03*
D19*
X018233Y009428D03*
X017733Y009428D03*
X017233Y009428D03*
X016733Y009428D03*
X016233Y009428D03*
X015733Y009428D03*
X015233Y009428D03*
X014733Y009428D03*
X014233Y009428D03*
X014233Y005468D03*
X014733Y005468D03*
X015233Y005468D03*
X015733Y005468D03*
X016233Y005468D03*
X016733Y005468D03*
X017233Y005468D03*
X017733Y005468D03*
X018233Y005468D03*
D20*
X022844Y005656D03*
X022844Y006148D03*
X022844Y006640D03*
X022844Y007132D03*
X022844Y007624D03*
X022844Y010914D03*
X022844Y011406D03*
X022844Y011898D03*
X022844Y012390D03*
X022844Y012882D03*
D21*
X024074Y013867D03*
X024074Y009930D03*
X024074Y008609D03*
X024074Y004671D03*
D22*
X020595Y003487D03*
X020102Y003487D03*
X019610Y003487D03*
X019118Y003487D03*
X018626Y003487D03*
X018134Y003487D03*
X017642Y003487D03*
D23*
X016658Y002257D03*
X021579Y002257D03*
D24*
X011113Y002533D03*
D25*
X006323Y006483D03*
X006323Y007483D03*
X006323Y008483D03*
D26*
X007363Y008088D02*
X007363Y010308D01*
X008083Y011028D01*
X008083Y013308D01*
X009283Y014508D01*
X009413Y014753D01*
X009763Y014478D02*
X009793Y014508D01*
X009913Y014753D01*
X009763Y014478D02*
X009763Y011748D01*
X009043Y011028D01*
X009043Y003798D01*
X009163Y003678D01*
X009163Y003138D01*
X009583Y002808D02*
X009539Y002533D01*
X009583Y002808D02*
X009583Y004188D01*
X009463Y004308D01*
X009463Y004608D01*
X009433Y004638D01*
X009433Y010458D01*
X009413Y010703D01*
X009913Y010703D02*
X009883Y010458D01*
X009883Y005028D01*
X010273Y004638D01*
X010603Y004403D01*
X010333Y004188D01*
X010333Y002808D01*
X010326Y002533D01*
X011113Y002533D02*
X011113Y002808D01*
X011113Y003678D01*
X011143Y003708D01*
X011143Y004848D01*
X010993Y004998D01*
X011083Y005208D01*
X011083Y006648D01*
X011263Y006828D01*
X011263Y010428D01*
X011293Y010458D01*
X011413Y010703D01*
X011533Y010938D01*
X011563Y010968D01*
X011563Y013098D01*
X011623Y013098D01*
X011563Y013098D02*
X011563Y013728D01*
X012283Y014448D01*
X012283Y014508D01*
X012413Y014753D01*
X012553Y014988D01*
X012553Y015768D01*
X013663Y015768D01*
X013813Y015348D02*
X015253Y015348D01*
X015583Y015108D02*
X016333Y015858D01*
X016813Y015768D02*
X017743Y015768D01*
X017743Y016158D01*
X018043Y016288D01*
X017043Y016288D02*
X016723Y016398D01*
X011623Y016398D01*
X011443Y016578D01*
X008893Y016578D01*
X008893Y014868D01*
X009363Y016098D02*
X009613Y015978D01*
X010363Y015978D01*
X011263Y015078D01*
X011263Y015018D01*
X011293Y014988D01*
X011413Y014753D01*
X011743Y015018D02*
X011743Y015468D01*
X011383Y015828D01*
X011263Y016098D01*
X011743Y015018D02*
X011773Y014988D01*
X011913Y014753D01*
X012913Y014753D02*
X013033Y014508D01*
X013063Y014478D01*
X013063Y013908D01*
X013963Y013578D02*
X014923Y012618D01*
X014923Y010938D01*
X014913Y010703D01*
X014503Y010938D02*
X014413Y010703D01*
X014503Y010938D02*
X014503Y012288D01*
X013903Y011868D02*
X013063Y011028D01*
X013063Y010968D01*
X013033Y010938D01*
X012913Y010703D01*
X013243Y010428D02*
X013243Y010128D01*
X012763Y009648D01*
X012763Y009348D01*
X013273Y008838D01*
X015613Y008838D01*
X015613Y009048D01*
X015733Y009428D01*
X016233Y009428D02*
X016123Y009048D01*
X016123Y008778D01*
X016033Y008688D01*
X016843Y008598D02*
X016843Y009048D01*
X016733Y009428D01*
X017233Y009428D02*
X017353Y009048D01*
X017353Y008838D01*
X018463Y008838D01*
X018553Y008928D01*
X018553Y009168D01*
X019063Y009678D01*
X019063Y010578D01*
X018913Y010728D01*
X018913Y013188D01*
X018493Y012978D02*
X017833Y012318D01*
X017443Y011868D02*
X017068Y011983D01*
X017443Y011868D02*
X018223Y011868D01*
X018643Y011448D01*
X018643Y010428D01*
X018163Y010488D02*
X018133Y010458D01*
X018133Y009798D01*
X018233Y009428D01*
X017733Y009428D02*
X017623Y009798D01*
X017623Y010008D01*
X015913Y010008D01*
X015583Y010338D01*
X015583Y010428D01*
X015553Y010458D01*
X015413Y010703D01*
X015553Y010938D01*
X015553Y011928D01*
X015913Y012288D01*
X016303Y011868D02*
X016693Y011478D01*
X017068Y011483D01*
X018163Y011238D02*
X018163Y010488D01*
X018133Y010458D02*
X016033Y010458D01*
X015913Y010703D01*
X013913Y010703D02*
X013783Y010458D01*
X013783Y010008D01*
X013273Y010458D02*
X013413Y010703D01*
X013273Y010458D02*
X013243Y010428D01*
X012583Y010428D02*
X012583Y010098D01*
X012583Y010428D02*
X012553Y010458D01*
X012413Y010703D01*
X012043Y010938D02*
X011913Y010703D01*
X011773Y010458D01*
X011743Y010428D01*
X011743Y009258D01*
X011503Y009018D01*
X011503Y006498D01*
X010303Y007398D02*
X010303Y008238D01*
X011923Y008868D02*
X011923Y005418D01*
X011713Y005208D01*
X011623Y004998D01*
X011623Y004638D01*
X011783Y004403D01*
X013753Y005838D02*
X014113Y005838D01*
X014233Y005468D01*
X014353Y005088D01*
X014353Y004098D01*
X014563Y003888D01*
X014773Y003798D01*
X015403Y003798D01*
X015403Y002028D01*
X012643Y002028D01*
X012403Y002268D01*
X011383Y002268D01*
X011113Y002533D01*
X008751Y002533D02*
X008653Y002808D01*
X007843Y003618D01*
X007843Y005508D01*
X008203Y005868D01*
X014773Y006738D02*
X015613Y005898D01*
X015613Y005838D01*
X015733Y005468D01*
X016233Y005468D02*
X016123Y005838D01*
X016123Y006108D01*
X015403Y006828D01*
X016063Y006828D02*
X016633Y006258D01*
X016633Y005838D01*
X016733Y005468D01*
X017233Y005468D02*
X017113Y005838D01*
X017113Y006708D01*
X016993Y006828D01*
X016903Y007398D02*
X019303Y007398D01*
X019303Y005958D01*
X020353Y004908D01*
X020353Y004248D01*
X019963Y003978D02*
X019963Y003858D01*
X020102Y003487D01*
X019610Y003487D02*
X019753Y003108D01*
X019753Y002988D01*
X019993Y002748D01*
X020263Y002328D02*
X017773Y002328D01*
X017773Y003108D01*
X017642Y003487D01*
X017503Y003798D01*
X015403Y003798D01*
X017413Y004248D02*
X017863Y004248D01*
X017863Y004098D01*
X017983Y003978D01*
X017983Y003858D01*
X018134Y003487D01*
X018626Y003487D02*
X018493Y003858D01*
X018493Y003978D01*
X017773Y004698D01*
X018343Y004728D02*
X018583Y004968D01*
X019933Y004968D01*
X019933Y004008D01*
X019963Y003978D01*
X020743Y003858D02*
X020595Y003487D01*
X020743Y003858D02*
X020773Y003888D01*
X020773Y004818D01*
X020893Y004938D01*
X021313Y005148D02*
X021313Y003378D01*
X020263Y002328D01*
X018973Y002868D02*
X018853Y002748D01*
X018973Y002868D02*
X018973Y003108D01*
X019118Y003487D01*
X018233Y005468D02*
X018343Y005838D01*
X018343Y006648D01*
X018523Y006828D01*
X017833Y006828D02*
X017833Y005838D01*
X017733Y005468D01*
X021103Y006108D02*
X021355Y005706D01*
X021823Y005658D02*
X022453Y005658D01*
X022844Y005656D01*
X023233Y005688D01*
X023443Y005898D01*
X023443Y007878D01*
X023293Y008028D01*
X023293Y010698D01*
X023233Y010758D01*
X022844Y010914D01*
X022453Y010968D01*
X022243Y011178D01*
X022243Y013098D01*
X022423Y013278D01*
X022423Y013578D01*
X022243Y013758D01*
X022243Y014898D01*
X021163Y015978D01*
X021043Y016288D01*
X020043Y016288D02*
X019903Y015978D01*
X018493Y014568D01*
X018493Y012978D01*
X018253Y013548D02*
X017803Y013098D01*
X017443Y013098D01*
X017068Y012983D01*
X017068Y012483D02*
X016693Y012528D01*
X016483Y012738D01*
X016483Y012978D01*
X016303Y013158D01*
X015883Y013278D02*
X015883Y013308D01*
X016153Y013578D01*
X016693Y013578D01*
X017068Y013483D01*
X017653Y013698D02*
X017653Y014238D01*
X017443Y014448D01*
X017068Y014483D01*
X017068Y013983D02*
X016693Y014088D01*
X016693Y014118D01*
X016303Y014118D01*
X015913Y014753D02*
X016033Y014988D01*
X016813Y015768D01*
X017068Y014983D02*
X017443Y014898D01*
X018163Y015618D01*
X017893Y014778D02*
X018253Y014418D01*
X018253Y013548D01*
X017833Y013698D02*
X017653Y013698D01*
X015883Y013278D02*
X014833Y013278D01*
X014083Y014028D01*
X014083Y014478D01*
X014053Y014508D01*
X013913Y014753D01*
X013573Y015018D02*
X013573Y015108D01*
X013813Y015348D01*
X013573Y015018D02*
X013543Y014988D01*
X013413Y014753D01*
X014413Y014753D02*
X014533Y014508D01*
X014563Y014478D01*
X014563Y014118D01*
X015043Y014508D02*
X015073Y014478D01*
X015073Y013698D01*
X015043Y014508D02*
X014913Y014753D01*
X015413Y014753D02*
X015553Y014988D01*
X015583Y015018D01*
X015583Y015108D01*
X020053Y013158D02*
X020443Y013158D01*
X020443Y013218D01*
X020653Y013428D01*
X021028Y013483D01*
X021028Y012983D02*
X020653Y012948D01*
X019963Y012258D01*
X019963Y011058D01*
X019783Y010878D01*
X020443Y011238D02*
X020653Y011448D01*
X021028Y011483D01*
X021028Y010983D02*
X021103Y010878D01*
X021103Y006108D01*
X022093Y006288D02*
X022453Y006288D01*
X022844Y006148D01*
X022844Y006640D02*
X022453Y006618D01*
X022093Y006978D01*
X022453Y007188D02*
X022243Y007398D01*
X022243Y008088D01*
X022033Y008298D01*
X022483Y008448D02*
X022483Y007758D01*
X022844Y007624D01*
X022844Y007132D02*
X022453Y007188D01*
X021613Y007728D02*
X021523Y007638D01*
X021613Y007728D02*
X021613Y011718D01*
X021403Y011928D01*
X021028Y011983D01*
X021028Y012483D02*
X020653Y012438D01*
X020203Y011988D01*
X020203Y009888D01*
X019693Y009378D01*
X019303Y009558D02*
X018793Y009048D01*
X018793Y008808D01*
X018583Y008598D01*
X016843Y008598D01*
X019303Y009558D02*
X019303Y011688D01*
X019333Y011718D01*
X018223Y011298D02*
X018163Y011238D01*
X020443Y011238D02*
X020443Y009288D01*
X019663Y008508D01*
X022063Y008868D02*
X022483Y008448D01*
X023233Y011298D02*
X022844Y011406D01*
X023233Y011298D02*
X023593Y011658D01*
X023233Y011868D02*
X022844Y011898D01*
X023233Y011868D02*
X023593Y012228D01*
X023233Y012438D02*
X022844Y012390D01*
X023233Y012438D02*
X023593Y012798D01*
X022844Y012882D02*
X022663Y013038D01*
X022663Y014298D01*
X022003Y013428D02*
X021403Y014028D01*
X021028Y013983D01*
X021028Y014483D02*
X020653Y014358D01*
X020173Y014358D01*
X020653Y015108D02*
X021028Y014983D01*
X020653Y015108D02*
X020653Y015138D01*
X020413Y015378D01*
X012643Y011748D02*
X012043Y011148D01*
X012043Y010938D01*
D27*
X012643Y011748D03*
X013903Y011868D03*
X014503Y012288D03*
X015913Y012288D03*
X016303Y011868D03*
X016243Y011298D03*
X017833Y012318D03*
X018913Y013188D03*
X020053Y013158D03*
X020173Y014358D03*
X020413Y015378D03*
X022663Y014298D03*
X022003Y013428D03*
X023593Y012798D03*
X023593Y012228D03*
X023593Y011658D03*
X022063Y008868D03*
X022033Y008298D03*
X021523Y007638D03*
X022093Y006978D03*
X022093Y006288D03*
X020893Y004938D03*
X020353Y004248D03*
X018343Y004728D03*
X017773Y004698D03*
X017413Y004248D03*
X018853Y002748D03*
X019993Y002748D03*
X014563Y003888D03*
X013753Y005838D03*
X014773Y006738D03*
X015403Y006828D03*
X016063Y006828D03*
X016993Y006828D03*
X016903Y007398D03*
X017833Y006828D03*
X018523Y006828D03*
X019213Y007908D03*
X019663Y008508D03*
X019693Y009378D03*
X018643Y010428D03*
X018223Y011298D03*
X019333Y011718D03*
X019783Y010878D03*
X016303Y013158D03*
X016303Y014118D03*
X015073Y013698D03*
X014563Y014118D03*
X013963Y013578D03*
X013063Y013908D03*
X011623Y013098D03*
X008893Y014868D03*
X013663Y015768D03*
X015253Y015348D03*
X016333Y015858D03*
X017893Y014778D03*
X018163Y015618D03*
X017833Y013698D03*
X013783Y010008D03*
X013183Y009498D03*
X012583Y010098D03*
X011923Y008868D03*
X010303Y008238D03*
X010303Y007398D03*
X011503Y006498D03*
X011623Y004998D03*
X010993Y004998D03*
X009163Y003138D03*
X008113Y002448D03*
X008203Y005868D03*
X008233Y006468D03*
X007213Y006018D03*
X007363Y008088D03*
X008353Y009138D03*
X008623Y010188D03*
X008233Y010608D03*
X016033Y008688D03*
D28*
X015133Y007848D02*
X019003Y007848D01*
X019213Y007908D01*
X020383Y006738D01*
X021240Y005899D01*
X021313Y005705D01*
X021344Y005678D01*
X021355Y005706D02*
X021377Y005669D01*
X021287Y005795D01*
X021435Y005673D01*
X021460Y005658D01*
X021823Y005658D01*
X021355Y005706D02*
X021313Y005705D01*
X021287Y005795D02*
X021287Y005430D01*
X021282Y005430D01*
X021282Y005262D01*
X021283Y005226D01*
X021313Y005148D01*
X015133Y007848D02*
X013303Y006018D01*
X013303Y004308D01*
X014743Y002868D01*
X014871Y002543D01*
X008113Y002448D02*
X008113Y002598D01*
X007543Y003489D01*
X007543Y005568D01*
X007303Y005808D01*
X007213Y006018D01*
X007153Y006078D01*
X007153Y006768D01*
X006733Y007188D01*
X006323Y007483D01*
X006913Y007608D01*
X007903Y007608D01*
X007903Y010278D01*
X008233Y010608D01*
X008623Y010188D02*
X008683Y010248D01*
X008683Y011328D01*
X008650Y011629D01*
X008353Y009138D02*
X008233Y009018D01*
X008233Y006468D01*
X013183Y009498D02*
X014113Y009498D01*
X014233Y009428D01*
X016243Y011088D02*
X016243Y011298D01*
X016243Y011088D02*
X016693Y011088D01*
X017068Y010983D01*
M02*
