G75*
G70*
%OFA0B0*%
%FSLAX24Y24*%
%IPPOS*%
%LPD*%
%AMOC8*
5,1,8,0,0,1.08239X$1,22.5*
%
%ADD10C,0.0000*%
%ADD11C,0.0110*%
%ADD12R,0.0059X0.0118*%
%ADD13R,0.0118X0.0118*%
D10*
X010019Y000799D02*
X028031Y000799D01*
X028031Y007492D01*
X010019Y007492D01*
X010019Y000799D01*
X015925Y009658D02*
X018287Y009658D01*
X018287Y022847D01*
X016122Y022847D01*
X012972Y023043D01*
X008641Y023043D01*
X005295Y022650D01*
X002342Y022256D01*
X000767Y022256D01*
X000767Y012610D01*
X001751Y012610D01*
X005492Y013004D01*
X008641Y012414D01*
X012185Y011429D01*
X015925Y009658D01*
X019468Y009658D02*
X021830Y009658D01*
X025570Y011429D01*
X029114Y012414D01*
X032263Y013004D01*
X036003Y012610D01*
X036988Y012610D01*
X036988Y022453D01*
X035413Y022453D01*
X032460Y022650D01*
X029114Y023043D01*
X024783Y023043D01*
X021633Y022847D01*
X019468Y022847D01*
X019468Y009658D01*
D11*
X029267Y002035D02*
X029562Y002035D01*
X029661Y001937D01*
X029661Y001839D01*
X029562Y001740D01*
X029267Y001740D01*
X029267Y001445D02*
X029562Y001445D01*
X029661Y001543D01*
X029661Y001642D01*
X029562Y001740D01*
X029912Y001740D02*
X029912Y001543D01*
X030010Y001445D01*
X030207Y001445D01*
X030305Y001543D01*
X030305Y001740D01*
X030207Y001839D01*
X030010Y001839D01*
X029912Y001740D01*
X029267Y001445D02*
X029267Y002035D01*
X030556Y001839D02*
X030753Y001839D01*
X030655Y001937D02*
X030655Y001543D01*
X030753Y001445D01*
X031084Y001543D02*
X031183Y001445D01*
X031084Y001543D02*
X031084Y001937D01*
X030986Y001839D02*
X031183Y001839D01*
X031416Y001740D02*
X031416Y001543D01*
X031514Y001445D01*
X031711Y001445D01*
X031809Y001543D01*
X031809Y001740D01*
X031711Y001839D01*
X031514Y001839D01*
X031416Y001740D01*
X032060Y001839D02*
X032060Y001445D01*
X032257Y001445D02*
X032257Y001740D01*
X032355Y001839D01*
X032454Y001740D01*
X032454Y001445D01*
X032257Y001740D02*
X032158Y001839D01*
X032060Y001839D01*
X033349Y001839D02*
X033448Y001740D01*
X033644Y001740D01*
X033743Y001642D01*
X033743Y001543D01*
X033644Y001445D01*
X033448Y001445D01*
X033349Y001543D01*
X033349Y001839D02*
X033349Y001937D01*
X033448Y002035D01*
X033644Y002035D01*
X033743Y001937D01*
X033994Y001839D02*
X034092Y001839D01*
X034092Y001445D01*
X033994Y001445D02*
X034190Y001445D01*
X034423Y001445D02*
X034620Y001445D01*
X034522Y001445D02*
X034522Y002035D01*
X034423Y002035D01*
X034092Y002035D02*
X034092Y002134D01*
X034853Y002035D02*
X034853Y001445D01*
X034853Y001642D02*
X035148Y001839D01*
X035390Y001740D02*
X035489Y001839D01*
X035784Y001839D01*
X035685Y001642D02*
X035489Y001642D01*
X035390Y001740D01*
X035390Y001445D02*
X035685Y001445D01*
X035784Y001543D01*
X035685Y001642D01*
X036035Y001740D02*
X036035Y001543D01*
X036133Y001445D01*
X036428Y001445D01*
X036679Y001445D02*
X036679Y001839D01*
X036876Y001839D02*
X036974Y001839D01*
X036876Y001839D02*
X036679Y001642D01*
X036428Y001839D02*
X036133Y001839D01*
X036035Y001740D01*
X035148Y001445D02*
X034853Y001642D01*
X037216Y001642D02*
X037610Y001642D01*
X037610Y001740D01*
X037511Y001839D01*
X037315Y001839D01*
X037216Y001740D01*
X037216Y001543D01*
X037315Y001445D01*
X037511Y001445D01*
X037861Y001543D02*
X037861Y001740D01*
X037959Y001839D01*
X038156Y001839D01*
X038254Y001740D01*
X038254Y001642D01*
X037861Y001642D01*
X037861Y001543D02*
X037959Y001445D01*
X038156Y001445D01*
X038505Y001445D02*
X038505Y001839D01*
X038801Y001839D01*
X038899Y001740D01*
X038899Y001445D01*
D12*
X025767Y002069D03*
X025767Y002365D03*
X024784Y003053D03*
X024784Y003349D03*
X025767Y004038D03*
X025767Y004333D03*
X024784Y005022D03*
X024784Y005317D03*
X025767Y005809D03*
X025767Y006105D03*
X023208Y005908D03*
X023208Y005612D03*
X023208Y004332D03*
X023208Y004037D03*
X023208Y002561D03*
X023208Y002266D03*
X018877Y002266D03*
X018877Y002561D03*
X018878Y004037D03*
X018878Y004332D03*
X018877Y005612D03*
X018877Y005908D03*
X014350Y005907D03*
X014350Y005612D03*
X012973Y005317D03*
X012973Y005022D03*
X011791Y004333D03*
X011791Y004038D03*
X012972Y003349D03*
X012972Y003054D03*
X011791Y002363D03*
X011791Y002068D03*
X014350Y002265D03*
X014350Y002561D03*
X014351Y004038D03*
X014351Y004333D03*
X011790Y005809D03*
X011790Y006104D03*
X015728Y010927D03*
X015728Y011223D03*
X012381Y012305D03*
X012381Y012601D03*
X009035Y013290D03*
X009035Y013585D03*
X005885Y013683D03*
X005885Y013979D03*
X005689Y015849D03*
X005689Y016144D03*
X005689Y017817D03*
X005689Y018112D03*
X002736Y017522D03*
X002736Y017227D03*
X002736Y015750D03*
X002736Y015455D03*
X002736Y013782D03*
X002736Y013486D03*
X009035Y016045D03*
X009035Y016341D03*
X009035Y018211D03*
X009035Y018506D03*
X012381Y018801D03*
X012381Y019097D03*
X015728Y019097D03*
X015728Y018801D03*
X015728Y021164D03*
X015728Y021459D03*
X012578Y021754D03*
X012578Y022049D03*
X009035Y022049D03*
X009035Y021754D03*
X005689Y021656D03*
X005689Y021360D03*
X002736Y021065D03*
X002736Y020770D03*
X012381Y016144D03*
X012381Y015849D03*
X015728Y015750D03*
X015728Y015455D03*
X022027Y015455D03*
X022027Y015750D03*
X025374Y015849D03*
X025374Y016144D03*
X028720Y016045D03*
X028720Y016341D03*
X028720Y018211D03*
X028720Y018506D03*
X025374Y018801D03*
X025374Y019097D03*
X022027Y019097D03*
X022027Y018801D03*
X022027Y021164D03*
X022027Y021459D03*
X025177Y021754D03*
X025177Y022049D03*
X028720Y022049D03*
X028720Y021754D03*
X032066Y021656D03*
X032066Y021360D03*
X035019Y021065D03*
X035019Y020770D03*
X032066Y018112D03*
X032066Y017817D03*
X032066Y016144D03*
X032066Y015849D03*
X035019Y015750D03*
X035019Y015455D03*
X035019Y013782D03*
X035019Y013486D03*
X031870Y013683D03*
X031870Y013979D03*
X028720Y013585D03*
X028720Y013290D03*
X025374Y012601D03*
X025374Y012305D03*
X022027Y011223D03*
X022027Y010927D03*
X035019Y017227D03*
X035019Y017522D03*
D13*
X035019Y017374D03*
X035019Y015603D03*
X032066Y015996D03*
X032066Y017965D03*
X028720Y018358D03*
X025374Y018949D03*
X022027Y018949D03*
X022027Y021311D03*
X025177Y021902D03*
X028720Y021902D03*
X032066Y021508D03*
X035019Y020918D03*
X028720Y016193D03*
X025374Y015996D03*
X022027Y015603D03*
X025374Y012453D03*
X028720Y013437D03*
X031870Y013831D03*
X035019Y013634D03*
X025767Y005957D03*
X024784Y005169D03*
X025767Y004186D03*
X024784Y003201D03*
X025767Y002217D03*
X023208Y002414D03*
X023208Y004185D03*
X023208Y005760D03*
X018877Y005760D03*
X018878Y004185D03*
X018877Y002414D03*
X014350Y002413D03*
X012972Y003201D03*
X011791Y002216D03*
X011791Y004185D03*
X012973Y005169D03*
X011790Y005957D03*
X014350Y005760D03*
X014351Y004186D03*
X015728Y011075D03*
X012381Y012453D03*
X009035Y013437D03*
X005885Y013831D03*
X002736Y013634D03*
X002736Y015603D03*
X002736Y017374D03*
X005689Y017965D03*
X005689Y015996D03*
X009035Y016193D03*
X012381Y015996D03*
X015728Y015603D03*
X015728Y018949D03*
X012381Y018949D03*
X009035Y018358D03*
X005689Y021508D03*
X002736Y020918D03*
X009035Y021902D03*
X012578Y021902D03*
X015728Y021311D03*
X022027Y011075D03*
M02*
