G75*
G70*
%OFA0B0*%
%FSLAX24Y24*%
%IPPOS*%
%LPD*%
%AMOC8*
5,1,8,0,0,1.08239X$1,22.5*
%
%ADD10C,0.0110*%
%ADD11R,0.0787X0.0315*%
%ADD12R,0.1181X0.0827*%
%ADD13R,0.0315X0.0787*%
%ADD14R,0.0827X0.1181*%
%ADD15OC8,0.0436*%
%ADD16C,0.0160*%
D10*
X025232Y006563D02*
X025232Y007154D01*
X025429Y006957D01*
X025625Y007154D01*
X025625Y006563D01*
X029267Y006661D02*
X029267Y006268D01*
X029464Y006071D01*
X029661Y006268D01*
X029661Y006661D01*
X029912Y006465D02*
X030010Y006465D01*
X030010Y006071D01*
X029912Y006071D02*
X030108Y006071D01*
X030341Y006169D02*
X030440Y006268D01*
X030735Y006268D01*
X030735Y006366D02*
X030735Y006071D01*
X030440Y006071D01*
X030341Y006169D01*
X030440Y006465D02*
X030637Y006465D01*
X030735Y006366D01*
X030986Y006366D02*
X031084Y006465D01*
X031380Y006465D01*
X031281Y006268D02*
X031084Y006268D01*
X030986Y006366D01*
X030986Y006071D02*
X031281Y006071D01*
X031380Y006169D01*
X031281Y006268D01*
X030010Y006661D02*
X030010Y006760D01*
X029661Y005480D02*
X029267Y005480D01*
X029464Y005480D02*
X029464Y004890D01*
X029912Y004988D02*
X029912Y005185D01*
X030010Y005283D01*
X030207Y005283D01*
X030305Y005185D01*
X030305Y004988D01*
X030207Y004890D01*
X030010Y004890D01*
X029912Y004988D01*
X030556Y004890D02*
X030851Y004890D01*
X030950Y004988D01*
X030950Y005185D01*
X030851Y005283D01*
X030556Y005283D01*
X030556Y004693D01*
X031845Y004890D02*
X031845Y005480D01*
X031845Y004890D02*
X032239Y004890D01*
X032490Y004988D02*
X032588Y005087D01*
X032883Y005087D01*
X032883Y005185D02*
X032883Y004890D01*
X032588Y004890D01*
X032490Y004988D01*
X032588Y005283D02*
X032785Y005283D01*
X032883Y005185D01*
X033134Y005283D02*
X033134Y004988D01*
X033233Y004890D01*
X033528Y004890D01*
X033528Y004791D02*
X033430Y004693D01*
X033331Y004693D01*
X033528Y004791D02*
X033528Y005283D01*
X033779Y005185D02*
X033877Y005283D01*
X034074Y005283D01*
X034172Y005185D01*
X034172Y005087D01*
X033779Y005087D01*
X033779Y005185D02*
X033779Y004988D01*
X033877Y004890D01*
X034074Y004890D01*
X034423Y004890D02*
X034423Y005283D01*
X034423Y005087D02*
X034620Y005283D01*
X034719Y005283D01*
X026117Y020539D02*
X025921Y020736D01*
X026019Y020736D02*
X025724Y020736D01*
X025724Y020539D02*
X025724Y021130D01*
X026019Y021130D01*
X026117Y021031D01*
X026117Y020835D01*
X026019Y020736D01*
X012043Y020736D02*
X011649Y020736D01*
X011649Y021327D01*
D11*
X025730Y005637D03*
X025730Y005145D03*
X025730Y004653D03*
X025730Y004161D03*
X025730Y003669D03*
X025730Y003177D03*
X025730Y002685D03*
D12*
X026960Y001700D03*
X026960Y006622D03*
D13*
X023531Y020142D03*
X023039Y020142D03*
X022547Y020142D03*
X022055Y020142D03*
X021563Y020142D03*
X016192Y020142D03*
X015700Y020142D03*
X015208Y020142D03*
X014716Y020142D03*
X014224Y020142D03*
D14*
X013240Y021372D03*
X017177Y021372D03*
X020578Y021372D03*
X024515Y021372D03*
D15*
X021732Y004933D03*
X023011Y004933D03*
X024192Y004638D03*
X024192Y003851D03*
X026850Y002768D03*
X026850Y005622D03*
X024881Y005917D03*
X021043Y013004D03*
X021043Y015760D03*
X020944Y018516D03*
X020551Y020189D03*
X017303Y019795D03*
X014448Y018221D03*
X016712Y016843D03*
X015925Y016449D03*
X013366Y020288D03*
X024881Y020189D03*
D16*
X024881Y020142D01*
X023531Y020142D01*
X023039Y020142D02*
X023039Y015000D01*
X021043Y013004D01*
X021043Y015760D02*
X022547Y017264D01*
X022547Y020142D01*
X022055Y020142D02*
X022055Y019626D01*
X020944Y018516D01*
X020551Y020142D02*
X020551Y020189D01*
X020551Y020142D02*
X021563Y020142D01*
X017303Y019795D02*
X016909Y020189D01*
X016220Y020189D01*
X016220Y020169D01*
X016192Y020142D01*
X015700Y020142D02*
X015700Y017854D01*
X016712Y016843D01*
X015925Y016449D02*
X015208Y017166D01*
X015208Y020142D01*
X014716Y020142D02*
X014716Y018488D01*
X014448Y018221D01*
X014224Y020142D02*
X013511Y020142D01*
X013366Y020288D01*
X024881Y005917D02*
X024881Y005425D01*
X025161Y005145D01*
X025730Y005145D01*
X025730Y004653D02*
X024965Y004653D01*
X024389Y005229D01*
X023307Y005229D01*
X023011Y004933D01*
X024192Y004638D02*
X024669Y004161D01*
X025730Y004161D01*
X025730Y003669D02*
X024374Y003669D01*
X024192Y003851D01*
X025730Y003177D02*
X026441Y003177D01*
X026850Y002768D01*
X025730Y002685D02*
X023980Y002685D01*
X021732Y004933D01*
X025730Y005637D02*
X026865Y005637D01*
X026850Y005622D01*
M02*
