G75*
G70*
%OFA0B0*%
%FSLAX24Y24*%
%IPPOS*%
%LPD*%
%AMOC8*
5,1,8,0,0,1.08239X$1,22.5*
%
%ADD10R,0.0378X0.0378*%
%ADD11OC8,0.0523*%
D10*
X011554Y002216D03*
X012145Y002216D03*
X012736Y003201D03*
X013326Y003201D03*
X014114Y002413D03*
X014704Y002413D03*
X014706Y004186D03*
X014115Y004186D03*
X013327Y005169D03*
X012736Y005169D03*
X012145Y005957D03*
X011554Y005957D03*
X014114Y005760D03*
X014704Y005760D03*
X012146Y004185D03*
X011555Y004185D03*
X018642Y004185D03*
X019233Y004185D03*
X019232Y005760D03*
X018641Y005760D03*
X022972Y005760D03*
X023562Y005760D03*
X024547Y005169D03*
X025138Y005169D03*
X025531Y005957D03*
X026122Y005957D03*
X026121Y004186D03*
X025531Y004186D03*
X025138Y003201D03*
X024547Y003201D03*
X023563Y002414D03*
X022972Y002414D03*
X025531Y002217D03*
X026122Y002217D03*
X023563Y004185D03*
X022972Y004185D03*
X019232Y002414D03*
X018641Y002414D03*
X016082Y011075D03*
X015492Y011075D03*
X012736Y012453D03*
X012145Y012453D03*
X009389Y013437D03*
X008799Y013437D03*
X006240Y013831D03*
X005649Y013831D03*
X003090Y013634D03*
X002500Y013634D03*
X002500Y015603D03*
X003090Y015603D03*
X005452Y015996D03*
X006043Y015996D03*
X008799Y016193D03*
X009389Y016193D03*
X012145Y015996D03*
X012736Y015996D03*
X015492Y015603D03*
X016082Y015603D03*
X016082Y018949D03*
X015492Y018949D03*
X012736Y018949D03*
X012145Y018949D03*
X009389Y018358D03*
X008799Y018358D03*
X006043Y017965D03*
X005452Y017965D03*
X003090Y017374D03*
X002500Y017374D03*
X002499Y020918D03*
X003090Y020918D03*
X005452Y021508D03*
X006043Y021508D03*
X008799Y021902D03*
X009389Y021902D03*
X012342Y021902D03*
X012933Y021902D03*
X015492Y021311D03*
X016082Y021311D03*
X021673Y021311D03*
X022263Y021311D03*
X024822Y021902D03*
X025413Y021902D03*
X028366Y021902D03*
X028956Y021902D03*
X031712Y021508D03*
X032302Y021508D03*
X034665Y020918D03*
X035255Y020918D03*
X032303Y017965D03*
X031712Y017965D03*
X028956Y018358D03*
X028366Y018358D03*
X025610Y018949D03*
X025019Y018949D03*
X022263Y018949D03*
X021673Y018949D03*
X025019Y015996D03*
X025610Y015996D03*
X028366Y016193D03*
X028956Y016193D03*
X031712Y015996D03*
X032303Y015996D03*
X034665Y015603D03*
X035255Y015603D03*
X035255Y017374D03*
X034665Y017374D03*
X032106Y013831D03*
X031515Y013831D03*
X028956Y013437D03*
X028366Y013437D03*
X025610Y012453D03*
X025019Y012453D03*
X022263Y011075D03*
X021673Y011075D03*
X021673Y015603D03*
X022263Y015603D03*
X034665Y013634D03*
X035255Y013634D03*
D11*
X024881Y020189D03*
X020944Y018516D03*
X020551Y020189D03*
X017303Y019795D03*
X014448Y018221D03*
X016712Y016843D03*
X015925Y016449D03*
X021043Y015760D03*
X021043Y013004D03*
X024881Y005917D03*
X024192Y004638D03*
X023011Y004933D03*
X021732Y004933D03*
X024192Y003851D03*
X026850Y002768D03*
X026850Y005622D03*
X013366Y020288D03*
M02*
