G75*
G70*
%OFA0B0*%
%FSLAX24Y24*%
%IPPOS*%
%LPD*%
%AMOC8*
5,1,8,0,0,1.08239X$1,22.5*
%
%ADD10C,0.0110*%
%ADD11R,0.0315X0.0315*%
%ADD12C,0.0160*%
%ADD13OC8,0.0436*%
D10*
X029485Y002626D02*
X029485Y003020D01*
X029288Y003020D02*
X029190Y003020D01*
X029288Y003020D02*
X029485Y002823D01*
X029736Y002823D02*
X030130Y002823D01*
X030130Y002921D02*
X030031Y003020D01*
X029834Y003020D01*
X029736Y002921D01*
X029736Y002823D01*
X029834Y002626D02*
X030031Y002626D01*
X030130Y002724D01*
X030130Y002921D01*
X030381Y003020D02*
X030381Y002528D01*
X030479Y002429D01*
X030577Y002429D01*
X030676Y002626D02*
X030381Y002626D01*
X030676Y002626D02*
X030774Y002724D01*
X030774Y003020D01*
X031025Y002921D02*
X031124Y003020D01*
X031320Y003020D01*
X031320Y002823D02*
X031025Y002823D01*
X031025Y002921D02*
X031025Y002626D01*
X031320Y002626D01*
X031419Y002724D01*
X031320Y002823D01*
X031670Y002626D02*
X032063Y002626D01*
X032063Y003216D01*
X032959Y002921D02*
X032959Y002626D01*
X033156Y002626D02*
X033156Y002921D01*
X033057Y003020D01*
X032959Y002921D01*
X033156Y002921D02*
X033254Y003020D01*
X033352Y003020D01*
X033352Y002626D01*
X033603Y002724D02*
X033603Y002921D01*
X033702Y003020D01*
X033899Y003020D01*
X033997Y002921D01*
X033997Y002724D01*
X033899Y002626D01*
X033702Y002626D01*
X033603Y002724D01*
X034230Y002626D02*
X034328Y002724D01*
X034328Y003118D01*
X034230Y003020D02*
X034427Y003020D01*
X034659Y003020D02*
X034856Y003020D01*
X034758Y003118D02*
X034758Y002724D01*
X034659Y002626D01*
X035107Y002724D02*
X035107Y002921D01*
X035206Y003020D01*
X035402Y003020D01*
X035501Y002921D01*
X035501Y002724D01*
X035402Y002626D01*
X035206Y002626D01*
X035107Y002724D01*
X035752Y002724D02*
X035752Y002823D01*
X035850Y002921D01*
X036145Y002921D01*
X035850Y002921D02*
X035752Y003020D01*
X035752Y003118D01*
X035850Y003216D01*
X036145Y003216D01*
X036145Y002626D01*
X035850Y002626D01*
X035752Y002724D01*
X031380Y006169D02*
X031281Y006268D01*
X031084Y006268D01*
X030986Y006366D01*
X031084Y006465D01*
X031380Y006465D01*
X031380Y006169D02*
X031281Y006071D01*
X030986Y006071D01*
X030735Y006071D02*
X030735Y006366D01*
X030637Y006465D01*
X030440Y006465D01*
X030440Y006268D02*
X030735Y006268D01*
X030735Y006071D02*
X030440Y006071D01*
X030341Y006169D01*
X030440Y006268D01*
X030108Y006071D02*
X029912Y006071D01*
X030010Y006071D02*
X030010Y006465D01*
X029912Y006465D01*
X030010Y006661D02*
X030010Y006760D01*
X029661Y006661D02*
X029661Y006268D01*
X029464Y006071D01*
X029267Y006268D01*
X029267Y006661D01*
D11*
X011554Y002216D03*
X012145Y002216D03*
X012736Y003201D03*
X013326Y003201D03*
X014114Y002413D03*
X014704Y002413D03*
X014706Y004186D03*
X014115Y004186D03*
X013327Y005169D03*
X012736Y005169D03*
X012145Y005957D03*
X011554Y005957D03*
X014114Y005760D03*
X014704Y005760D03*
X012146Y004185D03*
X011555Y004185D03*
X018642Y004185D03*
X019233Y004185D03*
X019232Y005760D03*
X018641Y005760D03*
X022972Y005760D03*
X023562Y005760D03*
X024547Y005169D03*
X025138Y005169D03*
X025531Y005957D03*
X026122Y005957D03*
X026121Y004186D03*
X025531Y004186D03*
X025138Y003201D03*
X024547Y003201D03*
X023563Y002414D03*
X022972Y002414D03*
X025531Y002217D03*
X026122Y002217D03*
X023563Y004185D03*
X022972Y004185D03*
X019232Y002414D03*
X018641Y002414D03*
X016082Y011075D03*
X015492Y011075D03*
X012736Y012453D03*
X012145Y012453D03*
X009389Y013437D03*
X008799Y013437D03*
X006240Y013831D03*
X005649Y013831D03*
X003090Y013634D03*
X002500Y013634D03*
X002500Y015603D03*
X003090Y015603D03*
X005452Y015996D03*
X006043Y015996D03*
X008799Y016193D03*
X009389Y016193D03*
X012145Y015996D03*
X012736Y015996D03*
X015492Y015603D03*
X016082Y015603D03*
X016082Y018949D03*
X015492Y018949D03*
X012736Y018949D03*
X012145Y018949D03*
X009389Y018358D03*
X008799Y018358D03*
X006043Y017965D03*
X005452Y017965D03*
X003090Y017374D03*
X002500Y017374D03*
X002499Y020918D03*
X003090Y020918D03*
X005452Y021508D03*
X006043Y021508D03*
X008799Y021902D03*
X009389Y021902D03*
X012342Y021902D03*
X012933Y021902D03*
X015492Y021311D03*
X016082Y021311D03*
X021673Y021311D03*
X022263Y021311D03*
X024822Y021902D03*
X025413Y021902D03*
X028366Y021902D03*
X028956Y021902D03*
X031712Y021508D03*
X032302Y021508D03*
X034665Y020918D03*
X035255Y020918D03*
X032303Y017965D03*
X031712Y017965D03*
X028956Y018358D03*
X028366Y018358D03*
X025610Y018949D03*
X025019Y018949D03*
X022263Y018949D03*
X021673Y018949D03*
X025019Y015996D03*
X025610Y015996D03*
X028366Y016193D03*
X028956Y016193D03*
X031712Y015996D03*
X032303Y015996D03*
X034665Y015603D03*
X035255Y015603D03*
X035255Y017374D03*
X034665Y017374D03*
X032106Y013831D03*
X031515Y013831D03*
X028956Y013437D03*
X028366Y013437D03*
X025610Y012453D03*
X025019Y012453D03*
X022263Y011075D03*
X021673Y011075D03*
X021673Y015603D03*
X022263Y015603D03*
X034665Y013634D03*
X035255Y013634D03*
D12*
X035216Y013595D01*
X035216Y015563D01*
X035255Y015603D01*
X035216Y015563D01*
X035216Y017335D01*
X035255Y017374D01*
X035216Y017414D01*
X035216Y017532D01*
X035216Y019303D01*
X034921Y019599D01*
X025472Y019599D01*
X024881Y020189D01*
X025019Y018949D02*
X024980Y018910D01*
X022303Y018910D01*
X022263Y018949D01*
X021673Y018949D02*
X021633Y018910D01*
X021535Y018910D01*
X021338Y018910D01*
X020944Y018516D01*
X020551Y020189D02*
X020551Y020681D01*
X021240Y021370D01*
X021535Y021370D01*
X021633Y021272D01*
X021673Y021311D01*
X022263Y021311D02*
X022814Y021862D01*
X024783Y021862D01*
X024822Y021902D01*
X025413Y021902D02*
X025452Y021862D01*
X028326Y021862D01*
X028366Y021902D01*
X028956Y021902D02*
X029389Y021469D01*
X031673Y021469D01*
X031712Y021508D01*
X031673Y021469D02*
X031673Y021469D01*
X032302Y021508D02*
X032932Y020878D01*
X034626Y020878D01*
X034626Y020878D01*
X034665Y020918D01*
X035216Y020878D02*
X035216Y019303D01*
X035216Y020878D02*
X035255Y020918D01*
X032303Y017965D02*
X032933Y017335D01*
X034626Y017335D01*
X034665Y017374D01*
X032736Y015563D02*
X032303Y015996D01*
X031712Y015996D02*
X031673Y015957D01*
X029192Y015957D01*
X028956Y016193D01*
X028366Y016193D02*
X028326Y016154D01*
X025767Y016154D01*
X025610Y015996D01*
X025019Y015996D02*
X024980Y015957D01*
X022618Y015957D01*
X022263Y015603D01*
X021673Y015603D02*
X021633Y015563D01*
X021240Y015563D01*
X021043Y015760D01*
X016712Y016843D02*
X016712Y011725D01*
X016122Y011134D01*
X016082Y011095D01*
X016082Y011075D01*
X015531Y011036D02*
X014114Y012453D01*
X012736Y012453D01*
X012185Y012414D02*
X011161Y013437D01*
X009389Y013437D01*
X008838Y013398D02*
X008405Y013831D01*
X006240Y013831D01*
X005689Y013791D02*
X003248Y013791D01*
X003090Y013634D01*
X002539Y013595D02*
X002539Y015563D01*
X002500Y015603D01*
X002539Y015563D01*
X002539Y017335D01*
X002500Y017374D01*
X002539Y017335D01*
X002539Y019599D01*
X002736Y019795D01*
X017303Y019795D01*
X016515Y020583D02*
X016220Y020288D01*
X013366Y020288D01*
X013563Y021272D02*
X015531Y021272D01*
X015492Y021311D01*
X016082Y021311D02*
X016122Y021272D01*
X016220Y021272D01*
X016515Y020977D01*
X016515Y020583D01*
X016082Y018949D02*
X016122Y018910D01*
X016220Y018811D01*
X016220Y018614D01*
X015826Y018221D01*
X014448Y018221D01*
X015492Y018949D02*
X015531Y018910D01*
X012775Y018910D01*
X012736Y018949D01*
X012185Y018910D02*
X009940Y018910D01*
X009389Y018358D01*
X008838Y018319D02*
X006397Y018319D01*
X006043Y017965D01*
X005452Y017965D02*
X005413Y017925D01*
X005295Y017925D01*
X003641Y017925D01*
X003090Y017374D01*
X003563Y015996D02*
X003129Y015563D01*
X003090Y015603D01*
X003563Y015996D02*
X005452Y015996D01*
X006043Y015996D02*
X006082Y015957D01*
X006318Y016193D01*
X008799Y016193D01*
X009389Y016193D02*
X009429Y016154D01*
X011988Y016154D01*
X012145Y015996D01*
X012736Y015996D02*
X012775Y015957D01*
X015137Y015957D01*
X015492Y015603D01*
X016082Y015603D02*
X016122Y015642D01*
X016122Y015662D01*
X016122Y016252D01*
X015925Y016449D01*
X012185Y018910D02*
X012145Y018949D01*
X008838Y018319D02*
X008799Y018358D01*
X012933Y021902D02*
X013563Y021272D01*
X012381Y021862D02*
X009429Y021862D01*
X009389Y021902D01*
X008838Y021862D02*
X006397Y021862D01*
X006043Y021508D01*
X005452Y021508D02*
X005413Y021469D01*
X005295Y021469D01*
X003641Y021469D01*
X003090Y020918D01*
X002539Y020878D02*
X002539Y019599D01*
X002539Y020878D02*
X002499Y020918D01*
X008799Y021902D02*
X008838Y021862D01*
X012342Y021902D02*
X012381Y021862D01*
X025610Y018949D02*
X026240Y018319D01*
X028326Y018319D01*
X028366Y018358D01*
X028956Y018358D02*
X029389Y017925D01*
X031673Y017925D01*
X031712Y017965D01*
X032736Y015563D02*
X034626Y015563D01*
X034665Y015603D01*
X034389Y013831D02*
X032106Y013831D01*
X031515Y013831D02*
X031476Y013791D01*
X029311Y013791D01*
X028956Y013437D01*
X028366Y013437D02*
X028326Y013398D01*
X026555Y013398D01*
X025610Y012453D01*
X025019Y012453D02*
X024980Y012414D01*
X023602Y012414D01*
X022263Y011075D01*
X021673Y011075D02*
X021633Y011036D01*
X021043Y011626D01*
X021043Y013004D01*
X015531Y011036D02*
X015492Y011075D01*
X012185Y012414D02*
X012145Y012453D01*
X008838Y013398D02*
X008799Y013437D01*
X005689Y013791D02*
X005649Y013831D01*
X002539Y013595D02*
X002500Y013634D01*
X012618Y005957D02*
X013661Y007000D01*
X024586Y007000D01*
X025570Y006016D01*
X025531Y005977D01*
X025531Y005957D01*
X024881Y005917D02*
X024881Y005524D01*
X025177Y005229D01*
X025138Y005190D01*
X025138Y005169D01*
X024547Y005169D02*
X024449Y005190D01*
X024389Y005229D01*
X024389Y005819D01*
X023700Y006508D01*
X013956Y006508D01*
X013327Y005879D01*
X013327Y005169D01*
X012736Y005169D02*
X012697Y005130D01*
X012677Y005130D01*
X011889Y005130D01*
X011496Y004736D01*
X011496Y004244D01*
X011555Y004185D01*
X011516Y004146D01*
X011496Y004146D01*
X011496Y003555D01*
X011889Y003162D01*
X012677Y003162D01*
X012696Y003162D01*
X012736Y003201D01*
X012736Y003221D01*
X012775Y003260D01*
X013701Y004186D01*
X014115Y004186D01*
X014115Y004206D01*
X014153Y004244D01*
X014153Y004540D01*
X014547Y004933D01*
X021732Y004933D01*
X023011Y004933D02*
X023602Y004343D01*
X023602Y004244D01*
X023602Y004224D01*
X023563Y004185D01*
X022972Y004185D02*
X022913Y004146D01*
X019370Y004146D01*
X019233Y004185D01*
X018642Y004185D02*
X018582Y004146D01*
X014842Y004146D01*
X014706Y004186D01*
X014055Y005229D02*
X014055Y005622D01*
X014114Y005760D01*
X014055Y005229D02*
X012972Y004146D01*
X012283Y004146D01*
X012146Y004185D01*
X011496Y004244D02*
X011496Y004244D01*
X011889Y005130D02*
X011554Y005465D01*
X011554Y005957D01*
X012145Y005957D02*
X012618Y005957D01*
X014704Y005760D02*
X014842Y005721D01*
X018582Y005721D01*
X018641Y005760D01*
X019232Y005760D02*
X019370Y005721D01*
X022814Y005721D01*
X022972Y005760D01*
X023562Y005760D02*
X023601Y005721D01*
X023700Y005721D01*
X023700Y005130D01*
X024192Y004638D01*
X025964Y004638D01*
X026161Y004441D01*
X026161Y004244D01*
X026121Y004205D01*
X026121Y004186D01*
X025570Y004047D02*
X025531Y004186D01*
X025570Y004047D02*
X025570Y002965D01*
X024980Y002374D01*
X023700Y002374D01*
X023563Y002414D01*
X022972Y002414D02*
X022913Y002374D01*
X019370Y002374D01*
X019232Y002414D01*
X018641Y002414D02*
X018484Y002374D01*
X014842Y002374D01*
X014704Y002413D01*
X014114Y002413D02*
X014055Y002374D01*
X013267Y002374D01*
X012677Y002965D01*
X012677Y003063D01*
X012736Y003201D01*
X013326Y003201D02*
X013366Y003260D01*
X024488Y003260D01*
X024547Y003201D01*
X025138Y003221D02*
X025138Y003201D01*
X025138Y003221D02*
X025177Y003260D01*
X025177Y003457D01*
X024783Y003851D01*
X024192Y003851D01*
X025531Y002217D02*
X025570Y002178D01*
X025570Y002177D01*
X025078Y001685D01*
X012972Y001685D01*
X012480Y002177D01*
X012283Y002177D01*
X012145Y002216D01*
X011554Y002216D02*
X011554Y002827D01*
X011889Y003162D01*
X026122Y002217D02*
X026122Y002217D01*
X026161Y002177D01*
X026555Y002177D01*
X026850Y002473D01*
X026850Y002768D01*
X026850Y005622D02*
X026555Y005917D01*
X026259Y005917D01*
X026161Y005917D01*
X026122Y005957D01*
X034389Y013831D02*
X034626Y013595D01*
X034665Y013634D01*
D13*
X024881Y020189D03*
X020944Y018516D03*
X020551Y020189D03*
X017303Y019795D03*
X014448Y018221D03*
X016712Y016843D03*
X015925Y016449D03*
X021043Y015760D03*
X021043Y013004D03*
X024881Y005917D03*
X024192Y004638D03*
X023011Y004933D03*
X021732Y004933D03*
X024192Y003851D03*
X026850Y002768D03*
X026850Y005622D03*
X013366Y020288D03*
M02*
